<svg width="128" height="52" viewBox="0 0 128 52" fill="none" xmlns="http://www.w3.org/2000/svg">
<rect width="128" height="52" rx="4" fill="#4CAF4F"/>
<path d="M33.5675 32V20.3636H37.7152C38.6167 20.3636 39.3648 20.5189 39.9595 20.8295C40.558 21.1402 41.005 21.5701 41.3004 22.1193C41.5959 22.6648 41.7436 23.2955 41.7436 24.0114C41.7436 24.7235 41.594 25.3504 41.2947 25.892C40.9993 26.4299 40.5523 26.8485 39.9538 27.1477C39.3591 27.447 38.611 27.5966 37.7095 27.5966H34.5675V26.0852H37.5504C38.1186 26.0852 38.5807 26.0038 38.9368 25.8409C39.2966 25.678 39.5599 25.4413 39.7266 25.1307C39.8932 24.8201 39.9766 24.447 39.9766 24.0114C39.9766 23.572 39.8913 23.1913 39.7209 22.8693C39.5542 22.5473 39.291 22.3011 38.9311 22.1307C38.575 21.9564 38.1072 21.8693 37.5277 21.8693H35.3232V32H33.5675ZM39.3118 26.75L42.1868 32H40.1868L37.3686 26.75H39.3118ZM47.3956 32.1761C46.5357 32.1761 45.7952 31.9924 45.174 31.625C44.5566 31.2538 44.0793 30.733 43.7422 30.0625C43.4089 29.3883 43.2422 28.5985 43.2422 27.6932C43.2422 26.7992 43.4089 26.0114 43.7422 25.3295C44.0793 24.6477 44.549 24.1155 45.1513 23.733C45.7573 23.3504 46.4657 23.1591 47.2763 23.1591C47.7687 23.1591 48.246 23.2405 48.7081 23.4034C49.1702 23.5663 49.585 23.822 49.9524 24.1705C50.3198 24.5189 50.6096 24.9716 50.8217 25.5284C51.0339 26.0814 51.1399 26.7538 51.1399 27.5455V28.1477H44.2024V26.875H49.4751C49.4751 26.428 49.3842 26.0322 49.2024 25.6875C49.0206 25.339 48.7649 25.0644 48.4354 24.8636C48.1096 24.6629 47.727 24.5625 47.2876 24.5625C46.8104 24.5625 46.3937 24.6799 46.0376 24.9148C45.6854 25.1458 45.4126 25.4489 45.2195 25.8239C45.0301 26.1951 44.9354 26.5985 44.9354 27.0341V28.0284C44.9354 28.6117 45.0376 29.108 45.2422 29.517C45.4505 29.9261 45.7403 30.2386 46.1115 30.4545C46.4827 30.6667 46.9164 30.7727 47.4126 30.7727C47.7346 30.7727 48.0282 30.7273 48.2933 30.6364C48.5585 30.5417 48.7876 30.4015 48.9808 30.2159C49.174 30.0303 49.3217 29.8011 49.424 29.5284L51.032 29.8182C50.9032 30.2917 50.6721 30.7064 50.3388 31.0625C50.0092 31.4148 49.5945 31.6894 49.0945 31.8864C48.5982 32.0795 48.032 32.1761 47.3956 32.1761ZM56.6839 35.4545C55.9908 35.4545 55.3942 35.3636 54.8942 35.1818C54.398 35 53.9927 34.7595 53.6783 34.4602C53.3639 34.161 53.129 33.8333 52.9737 33.4773L54.4339 32.875C54.5362 33.0417 54.6726 33.2178 54.843 33.4034C55.0173 33.5928 55.2521 33.7538 55.5476 33.8864C55.8468 34.0189 56.2313 34.0852 56.701 34.0852C57.3449 34.0852 57.8771 33.928 58.2976 33.6136C58.718 33.303 58.9283 32.8068 58.9283 32.125V30.4091H58.8203C58.718 30.5947 58.5703 30.8011 58.3771 31.0284C58.1877 31.2557 57.9264 31.4527 57.593 31.6193C57.2597 31.786 56.826 31.8693 56.2919 31.8693C55.6025 31.8693 54.9813 31.7083 54.4283 31.3864C53.879 31.0606 53.4434 30.5814 53.1214 29.9489C52.8033 29.3125 52.6442 28.5303 52.6442 27.6023C52.6442 26.6742 52.8014 25.8788 53.1158 25.2159C53.4339 24.553 53.8696 24.0455 54.4226 23.6932C54.9756 23.3371 55.6025 23.1591 56.3033 23.1591C56.8449 23.1591 57.2824 23.25 57.6158 23.4318C57.9491 23.6098 58.2086 23.8182 58.3942 24.0568C58.5836 24.2955 58.7294 24.5057 58.8317 24.6875H58.9567V23.2727H60.6214V32.1932C60.6214 32.9432 60.4472 33.5587 60.0987 34.0398C59.7502 34.5208 59.2786 34.8769 58.6839 35.108C58.093 35.339 57.4264 35.4545 56.6839 35.4545ZM56.6669 30.4602C57.1555 30.4602 57.5684 30.3466 57.9055 30.1193C58.2464 29.8883 58.504 29.5587 58.6783 29.1307C58.8563 28.6989 58.9453 28.1818 58.9453 27.5795C58.9453 26.9924 58.8582 26.4754 58.6839 26.0284C58.5097 25.5814 58.254 25.233 57.9169 24.983C57.5798 24.7292 57.1631 24.6023 56.6669 24.6023C56.1555 24.6023 55.7294 24.7348 55.3885 25C55.0476 25.2614 54.79 25.6174 54.6158 26.0682C54.4453 26.5189 54.3601 27.0227 54.3601 27.5795C54.3601 28.1515 54.4472 28.6534 54.6214 29.0852C54.7957 29.517 55.0533 29.8542 55.3942 30.0966C55.7389 30.339 56.1631 30.4602 56.6669 30.4602ZM62.8999 32V23.2727H64.5987V32H62.8999ZM63.7578 21.9261C63.4624 21.9261 63.2086 21.8277 62.9964 21.6307C62.7881 21.4299 62.6839 21.1913 62.6839 20.9148C62.6839 20.6345 62.7881 20.3958 62.9964 20.1989C63.2086 19.9981 63.4624 19.8977 63.7578 19.8977C64.0533 19.8977 64.3052 19.9981 64.5135 20.1989C64.7256 20.3958 64.8317 20.6345 64.8317 20.9148C64.8317 21.1913 64.7256 21.4299 64.5135 21.6307C64.3052 21.8277 64.0533 21.9261 63.7578 21.9261ZM73.424 25.4034L71.8842 25.6761C71.8198 25.4792 71.7176 25.2917 71.5774 25.1136C71.4411 24.9356 71.2554 24.7898 71.0206 24.6761C70.7857 24.5625 70.4922 24.5057 70.1399 24.5057C69.6589 24.5057 69.2573 24.6136 68.9354 24.8295C68.6134 25.0417 68.4524 25.3163 68.4524 25.6534C68.4524 25.9451 68.5604 26.1799 68.7763 26.358C68.9922 26.536 69.3407 26.6818 69.8217 26.7955L71.2081 27.1136C72.0111 27.2992 72.6096 27.5852 73.0036 27.9716C73.3975 28.358 73.5945 28.8598 73.5945 29.4773C73.5945 30 73.4429 30.4659 73.1399 30.875C72.8407 31.2803 72.4221 31.5985 71.8842 31.8295C71.3501 32.0606 70.7308 32.1761 70.0263 32.1761C69.049 32.1761 68.2517 31.9678 67.6342 31.5511C67.0168 31.1307 66.638 30.5341 66.4979 29.7614L68.1399 29.5114C68.2422 29.9394 68.4524 30.2633 68.7706 30.483C69.0888 30.6989 69.5036 30.8068 70.0149 30.8068C70.5717 30.8068 71.0168 30.6913 71.3501 30.4602C71.6835 30.2254 71.8501 29.9394 71.8501 29.6023C71.8501 29.3295 71.7479 29.1004 71.5433 28.9148C71.3426 28.7292 71.0339 28.589 70.6172 28.4943L69.1399 28.1705C68.3255 27.9848 67.7232 27.6894 67.3331 27.2841C66.9467 26.8788 66.7536 26.3655 66.7536 25.7443C66.7536 25.2292 66.8975 24.7784 67.1854 24.392C67.4732 24.0057 67.871 23.7045 68.3786 23.4886C68.8861 23.2689 69.4676 23.1591 70.1229 23.1591C71.0661 23.1591 71.8085 23.3636 72.3501 23.7727C72.8918 24.178 73.2498 24.7216 73.424 25.4034ZM79.5362 23.2727V24.6364H74.7692V23.2727H79.5362ZM76.0476 21.1818H77.7464V29.4375C77.7464 29.767 77.7957 30.0152 77.8942 30.1818C77.9927 30.3447 78.1196 30.4564 78.2749 30.517C78.4339 30.5739 78.6063 30.6023 78.7919 30.6023C78.9283 30.6023 79.0476 30.5928 79.1499 30.5739C79.2521 30.5549 79.3317 30.5398 79.3885 30.5284L79.6953 31.9318C79.5968 31.9697 79.4567 32.0076 79.2749 32.0455C79.093 32.0871 78.8658 32.1098 78.593 32.1136C78.1461 32.1212 77.7294 32.0417 77.343 31.875C76.9567 31.7083 76.6442 31.4508 76.4055 31.1023C76.1669 30.7538 76.0476 30.3163 76.0476 29.7898V21.1818ZM85.0831 32.1761C84.2232 32.1761 83.4827 31.9924 82.8615 31.625C82.2441 31.2538 81.7668 30.733 81.4297 30.0625C81.0964 29.3883 80.9297 28.5985 80.9297 27.6932C80.9297 26.7992 81.0964 26.0114 81.4297 25.3295C81.7668 24.6477 82.2365 24.1155 82.8388 23.733C83.4448 23.3504 84.1532 23.1591 84.9638 23.1591C85.4562 23.1591 85.9335 23.2405 86.3956 23.4034C86.8577 23.5663 87.2725 23.822 87.6399 24.1705C88.0073 24.5189 88.2971 24.9716 88.5092 25.5284C88.7214 26.0814 88.8274 26.7538 88.8274 27.5455V28.1477H81.8899V26.875H87.1626C87.1626 26.428 87.0717 26.0322 86.8899 25.6875C86.7081 25.339 86.4524 25.0644 86.1229 24.8636C85.7971 24.6629 85.4145 24.5625 84.9751 24.5625C84.4979 24.5625 84.0812 24.6799 83.7251 24.9148C83.3729 25.1458 83.1001 25.4489 82.907 25.8239C82.7176 26.1951 82.6229 26.5985 82.6229 27.0341V28.0284C82.6229 28.6117 82.7251 29.108 82.9297 29.517C83.138 29.9261 83.4278 30.2386 83.799 30.4545C84.1702 30.6667 84.6039 30.7727 85.1001 30.7727C85.4221 30.7727 85.7157 30.7273 85.9808 30.6364C86.246 30.5417 86.4751 30.4015 86.6683 30.2159C86.8615 30.0303 87.0092 29.8011 87.1115 29.5284L88.7195 29.8182C88.5907 30.2917 88.3596 30.7064 88.0263 31.0625C87.6967 31.4148 87.282 31.6894 86.782 31.8864C86.2857 32.0795 85.7195 32.1761 85.0831 32.1761ZM90.7124 32V23.2727H92.3544V24.6591H92.4453C92.6044 24.1894 92.8847 23.8201 93.2862 23.5511C93.6915 23.2784 94.1499 23.142 94.6612 23.142C94.7673 23.142 94.8923 23.1458 95.0362 23.1534C95.1839 23.161 95.2995 23.1705 95.3828 23.1818V24.8068C95.3146 24.7879 95.1934 24.767 95.0192 24.7443C94.8449 24.7178 94.6707 24.7045 94.4964 24.7045C94.0949 24.7045 93.737 24.7898 93.4226 24.9602C93.112 25.1269 92.8658 25.3598 92.6839 25.6591C92.5021 25.9545 92.4112 26.2917 92.4112 26.6705V32H90.7124Z" fill="white"/>
</svg>
