<svg width="588" height="24" viewBox="0 0 588 24" fill="none" xmlns="http://www.w3.org/2000/svg">
<g clip-path="url(#clip0_213_908)">
<path d="M1.27841 18V6.36364H3.03409V11.4205H8.83523V6.36364H10.5966V18H8.83523V12.9261H3.03409V18H1.27841ZM16.6932 18.1761C15.875 18.1761 15.161 17.9886 14.5511 17.6136C13.9413 17.2386 13.4678 16.714 13.1307 16.0398C12.7936 15.3655 12.625 14.5777 12.625 13.6761C12.625 12.7708 12.7936 11.9792 13.1307 11.3011C13.4678 10.6231 13.9413 10.0966 14.5511 9.72159C15.161 9.34659 15.875 9.15909 16.6932 9.15909C17.5114 9.15909 18.2254 9.34659 18.8352 9.72159C19.4451 10.0966 19.9186 10.6231 20.2557 11.3011C20.5928 11.9792 20.7614 12.7708 20.7614 13.6761C20.7614 14.5777 20.5928 15.3655 20.2557 16.0398C19.9186 16.714 19.4451 17.2386 18.8352 17.6136C18.2254 17.9886 17.5114 18.1761 16.6932 18.1761ZM16.6989 16.75C17.2292 16.75 17.6686 16.6098 18.017 16.3295C18.3655 16.0492 18.6231 15.6761 18.7898 15.2102C18.9602 14.7443 19.0455 14.2311 19.0455 13.6705C19.0455 13.1136 18.9602 12.6023 18.7898 12.1364C18.6231 11.6667 18.3655 11.2898 18.017 11.0057C17.6686 10.7216 17.2292 10.5795 16.6989 10.5795C16.1648 10.5795 15.7216 10.7216 15.3693 11.0057C15.0208 11.2898 14.7614 11.6667 14.5909 12.1364C14.4242 12.6023 14.3409 13.1136 14.3409 13.6705C14.3409 14.2311 14.4242 14.7443 14.5909 15.2102C14.7614 15.6761 15.0208 16.0492 15.3693 16.3295C15.7216 16.6098 16.1648 16.75 16.6989 16.75ZM22.6577 18V9.27273H24.2884V10.6932H24.3963C24.5781 10.2121 24.8755 9.83712 25.2884 9.56818C25.7012 9.29545 26.1955 9.15909 26.7713 9.15909C27.3546 9.15909 27.8433 9.29545 28.2372 9.56818C28.6349 9.84091 28.9285 10.2159 29.1179 10.6932H29.2088C29.4171 10.2273 29.7486 9.85606 30.2031 9.57955C30.6577 9.29924 31.1993 9.15909 31.8281 9.15909C32.6198 9.15909 33.2656 9.4072 33.7656 9.90341C34.2694 10.3996 34.5213 11.1477 34.5213 12.1477V18H32.8224V12.3068C32.8224 11.7159 32.6615 11.2879 32.3395 11.0227C32.0175 10.7576 31.633 10.625 31.1861 10.625C30.633 10.625 30.2031 10.7955 29.8963 11.1364C29.5895 11.4735 29.4361 11.9072 29.4361 12.4375V18H27.7429V12.1989C27.7429 11.7254 27.5952 11.3447 27.2997 11.0568C27.0043 10.7689 26.6198 10.625 26.1463 10.625C25.8243 10.625 25.527 10.7102 25.2543 10.8807C24.9853 11.0473 24.7675 11.2803 24.6009 11.5795C24.438 11.8788 24.3565 12.2254 24.3565 12.6193V18H22.6577ZM40.5597 18.1761C39.6998 18.1761 38.9593 17.9924 38.3381 17.625C37.7206 17.2538 37.2434 16.733 36.9062 16.0625C36.5729 15.3883 36.4062 14.5985 36.4062 13.6932C36.4062 12.7992 36.5729 12.0114 36.9062 11.3295C37.2434 10.6477 37.7131 10.1155 38.3153 9.73295C38.9214 9.35038 39.6297 9.15909 40.4403 9.15909C40.9328 9.15909 41.41 9.24053 41.8722 9.40341C42.3343 9.56629 42.7491 9.82197 43.1165 10.1705C43.4839 10.5189 43.7737 10.9716 43.9858 11.5284C44.1979 12.0814 44.304 12.7538 44.304 13.5455V14.1477H37.3665V12.875H42.6392C42.6392 12.428 42.5483 12.0322 42.3665 11.6875C42.1847 11.339 41.929 11.0644 41.5994 10.8636C41.2737 10.6629 40.8911 10.5625 40.4517 10.5625C39.9744 10.5625 39.5578 10.6799 39.2017 10.9148C38.8494 11.1458 38.5767 11.4489 38.3835 11.8239C38.1941 12.1951 38.0994 12.5985 38.0994 13.0341V14.0284C38.0994 14.6117 38.2017 15.108 38.4062 15.517C38.6146 15.9261 38.9044 16.2386 39.2756 16.4545C39.6468 16.6667 40.0805 16.7727 40.5767 16.7727C40.8987 16.7727 41.1922 16.7273 41.4574 16.6364C41.7225 16.5417 41.9517 16.4015 42.1449 16.2159C42.3381 16.0303 42.4858 15.8011 42.5881 15.5284L44.196 15.8182C44.0672 16.2917 43.8362 16.7064 43.5028 17.0625C43.1733 17.4148 42.7585 17.6894 42.2585 17.8864C41.7623 18.0795 41.196 18.1761 40.5597 18.1761Z" fill="#18191F"/>
<path d="M103.773 9.27273C103.705 8.69697 103.428 8.25 102.943 7.93182C102.458 7.61364 101.864 7.45455 101.159 7.45455C100.644 7.45455 100.193 7.53788 99.8068 7.70455C99.4242 7.87121 99.125 8.10038 98.9091 8.39205C98.697 8.68371 98.5909 9.01515 98.5909 9.38636C98.5909 9.69697 98.6648 9.96401 98.8125 10.1875C98.964 10.4072 99.1572 10.5909 99.392 10.7386C99.6269 10.8826 99.8731 11.0019 100.131 11.0966C100.388 11.1875 100.625 11.2614 100.841 11.3182L102.023 11.6364C102.326 11.7159 102.663 11.8258 103.034 11.9659C103.409 12.1061 103.767 12.2973 104.108 12.5398C104.453 12.7784 104.737 13.0852 104.96 13.4602C105.184 13.8352 105.295 14.2955 105.295 14.8409C105.295 15.4697 105.131 16.0379 104.801 16.5455C104.475 17.053 103.998 17.4564 103.369 17.7557C102.744 18.0549 101.985 18.2045 101.091 18.2045C100.258 18.2045 99.536 18.0701 98.9261 17.8011C98.3201 17.5322 97.8428 17.1572 97.4943 16.6761C97.1496 16.1951 96.9545 15.6364 96.9091 15H98.3636C98.4015 15.4394 98.5492 15.803 98.8068 16.0909C99.0682 16.375 99.3977 16.5871 99.7955 16.7273C100.197 16.8636 100.629 16.9318 101.091 16.9318C101.629 16.9318 102.112 16.8447 102.54 16.6705C102.968 16.4924 103.307 16.2462 103.557 15.9318C103.807 15.6136 103.932 15.2424 103.932 14.8182C103.932 14.4318 103.824 14.1174 103.608 13.875C103.392 13.6326 103.108 13.4356 102.756 13.2841C102.403 13.1326 102.023 13 101.614 12.8864L100.182 12.4773C99.2727 12.2159 98.553 11.8428 98.0227 11.358C97.4924 10.8731 97.2273 10.2386 97.2273 9.45455C97.2273 8.80303 97.4034 8.23485 97.7557 7.75C98.1117 7.26136 98.589 6.88258 99.1875 6.61364C99.7898 6.34091 100.462 6.20455 101.205 6.20455C101.955 6.20455 102.621 6.33901 103.205 6.60795C103.788 6.87311 104.25 7.23674 104.591 7.69886C104.936 8.16098 105.117 8.68561 105.136 9.27273H103.773ZM111.089 18.1818C110.249 18.1818 109.523 17.9962 108.913 17.625C108.307 17.25 107.839 16.7273 107.51 16.0568C107.184 15.3826 107.021 14.5985 107.021 13.7045C107.021 12.8106 107.184 12.0227 107.51 11.3409C107.839 10.6553 108.298 10.1212 108.885 9.73864C109.476 9.35227 110.165 9.15909 110.953 9.15909C111.408 9.15909 111.857 9.23485 112.3 9.38636C112.743 9.53788 113.146 9.78409 113.51 10.125C113.874 10.4621 114.163 10.9091 114.379 11.4659C114.595 12.0227 114.703 12.7083 114.703 13.5227V14.0909H107.976V12.9318H113.339C113.339 12.4394 113.241 12 113.044 11.6136C112.851 11.2273 112.574 10.9223 112.214 10.6989C111.858 10.4754 111.438 10.3636 110.953 10.3636C110.419 10.3636 109.957 10.4962 109.567 10.7614C109.18 11.0227 108.883 11.3636 108.675 11.7841C108.466 12.2045 108.362 12.6553 108.362 13.1364V13.9091C108.362 14.5682 108.476 15.1269 108.703 15.5852C108.934 16.0398 109.254 16.3864 109.663 16.625C110.072 16.8598 110.548 16.9773 111.089 16.9773C111.442 16.9773 111.76 16.928 112.044 16.8295C112.332 16.7273 112.58 16.5758 112.788 16.375C112.997 16.1705 113.158 15.9167 113.271 15.6136L114.567 15.9773C114.43 16.4167 114.201 16.803 113.879 17.1364C113.557 17.4659 113.16 17.7235 112.686 17.9091C112.213 18.0909 111.68 18.1818 111.089 18.1818ZM116.743 18V9.27273H118.038V10.5909H118.129C118.288 10.1591 118.576 9.80871 118.993 9.53977C119.41 9.27083 119.879 9.13636 120.402 9.13636C120.5 9.13636 120.624 9.13826 120.771 9.14205C120.919 9.14583 121.031 9.15152 121.107 9.15909V10.5227C121.061 10.5114 120.957 10.4943 120.794 10.4716C120.635 10.4451 120.466 10.4318 120.288 10.4318C119.864 10.4318 119.485 10.5208 119.152 10.6989C118.822 10.8731 118.561 11.1155 118.368 11.4261C118.179 11.733 118.084 12.0833 118.084 12.4773V18H116.743ZM130.098 9.27273L126.871 18H125.507L122.28 9.27273H123.734L126.143 16.2273H126.234L128.643 9.27273H130.098ZM131.868 18V9.27273H133.209V18H131.868ZM132.55 7.81818C132.288 7.81818 132.063 7.72917 131.874 7.55114C131.688 7.37311 131.595 7.15909 131.595 6.90909C131.595 6.65909 131.688 6.44508 131.874 6.26705C132.063 6.08902 132.288 6 132.55 6C132.811 6 133.035 6.08902 133.22 6.26705C133.41 6.44508 133.504 6.65909 133.504 6.90909C133.504 7.15909 133.41 7.37311 133.22 7.55114C133.035 7.72917 132.811 7.81818 132.55 7.81818ZM139.21 18.1818C138.392 18.1818 137.688 17.9886 137.097 17.6023C136.506 17.2159 136.051 16.6837 135.733 16.0057C135.415 15.3277 135.256 14.553 135.256 13.6818C135.256 12.7955 135.419 12.0133 135.744 11.3352C136.074 10.6534 136.532 10.1212 137.119 9.73864C137.71 9.35227 138.4 9.15909 139.188 9.15909C139.801 9.15909 140.354 9.27273 140.847 9.5C141.339 9.72727 141.742 10.0455 142.057 10.4545C142.371 10.8636 142.566 11.3409 142.642 11.8864H141.301C141.199 11.4886 140.972 11.1364 140.619 10.8295C140.271 10.5189 139.801 10.3636 139.21 10.3636C138.688 10.3636 138.229 10.5 137.835 10.7727C137.445 11.0417 137.14 11.4223 136.92 11.9148C136.705 12.4034 136.597 12.9773 136.597 13.6364C136.597 14.3106 136.703 14.8977 136.915 15.3977C137.131 15.8977 137.434 16.286 137.824 16.5625C138.218 16.839 138.68 16.9773 139.21 16.9773C139.559 16.9773 139.875 16.9167 140.159 16.7955C140.443 16.6742 140.684 16.5 140.881 16.2727C141.078 16.0455 141.218 15.7727 141.301 15.4545H142.642C142.566 15.9697 142.379 16.4337 142.08 16.8466C141.784 17.2557 141.392 17.5814 140.903 17.8239C140.419 18.0625 139.854 18.1818 139.21 18.1818ZM148.261 18.1818C147.42 18.1818 146.695 17.9962 146.085 17.625C145.479 17.25 145.011 16.7273 144.682 16.0568C144.356 15.3826 144.193 14.5985 144.193 13.7045C144.193 12.8106 144.356 12.0227 144.682 11.3409C145.011 10.6553 145.47 10.1212 146.057 9.73864C146.648 9.35227 147.337 9.15909 148.125 9.15909C148.58 9.15909 149.028 9.23485 149.472 9.38636C149.915 9.53788 150.318 9.78409 150.682 10.125C151.045 10.4621 151.335 10.9091 151.551 11.4659C151.767 12.0227 151.875 12.7083 151.875 13.5227V14.0909H145.148V12.9318H150.511C150.511 12.4394 150.413 12 150.216 11.6136C150.023 11.2273 149.746 10.9223 149.386 10.6989C149.03 10.4754 148.61 10.3636 148.125 10.3636C147.591 10.3636 147.129 10.4962 146.739 10.7614C146.352 11.0227 146.055 11.3636 145.847 11.7841C145.638 12.2045 145.534 12.6553 145.534 13.1364V13.9091C145.534 14.5682 145.648 15.1269 145.875 15.5852C146.106 16.0398 146.426 16.3864 146.835 16.625C147.244 16.8598 147.72 16.9773 148.261 16.9773C148.614 16.9773 148.932 16.928 149.216 16.8295C149.504 16.7273 149.752 16.5758 149.96 16.375C150.169 16.1705 150.33 15.9167 150.443 15.6136L151.739 15.9773C151.602 16.4167 151.373 16.803 151.051 17.1364C150.729 17.4659 150.331 17.7235 149.858 17.9091C149.384 18.0909 148.852 18.1818 148.261 18.1818Z" fill="#18191F"/>
<path d="M204.409 18V6.36364H211.386V7.61364H205.818V11.5455H210.864V12.7955H205.818V18H204.409ZM216.636 18.1818C215.795 18.1818 215.07 17.9962 214.46 17.625C213.854 17.25 213.386 16.7273 213.057 16.0568C212.731 15.3826 212.568 14.5985 212.568 13.7045C212.568 12.8106 212.731 12.0227 213.057 11.3409C213.386 10.6553 213.845 10.1212 214.432 9.73864C215.023 9.35227 215.712 9.15909 216.5 9.15909C216.955 9.15909 217.403 9.23485 217.847 9.38636C218.29 9.53788 218.693 9.78409 219.057 10.125C219.42 10.4621 219.71 10.9091 219.926 11.4659C220.142 12.0227 220.25 12.7083 220.25 13.5227V14.0909H213.523V12.9318H218.886C218.886 12.4394 218.788 12 218.591 11.6136C218.398 11.2273 218.121 10.9223 217.761 10.6989C217.405 10.4754 216.985 10.3636 216.5 10.3636C215.966 10.3636 215.504 10.4962 215.114 10.7614C214.727 11.0227 214.43 11.3636 214.222 11.7841C214.013 12.2045 213.909 12.6553 213.909 13.1364V13.9091C213.909 14.5682 214.023 15.1269 214.25 15.5852C214.481 16.0398 214.801 16.3864 215.21 16.625C215.619 16.8598 216.095 16.9773 216.636 16.9773C216.989 16.9773 217.307 16.928 217.591 16.8295C217.879 16.7273 218.127 16.5758 218.335 16.375C218.544 16.1705 218.705 15.9167 218.818 15.6136L220.114 15.9773C219.977 16.4167 219.748 16.803 219.426 17.1364C219.104 17.4659 218.706 17.7235 218.233 17.9091C217.759 18.0909 217.227 18.1818 216.636 18.1818ZM224.858 18.2045C224.305 18.2045 223.803 18.1004 223.352 17.892C222.902 17.6799 222.544 17.375 222.278 16.9773C222.013 16.5758 221.881 16.0909 221.881 15.5227C221.881 15.0227 221.979 14.6174 222.176 14.3068C222.373 13.9924 222.636 13.7462 222.966 13.5682C223.295 13.3902 223.659 13.2576 224.057 13.1705C224.458 13.0795 224.862 13.0076 225.267 12.9545C225.797 12.8864 226.227 12.8352 226.557 12.8011C226.89 12.7633 227.133 12.7008 227.284 12.6136C227.439 12.5265 227.517 12.375 227.517 12.1591V12.1136C227.517 11.553 227.364 11.1174 227.057 10.8068C226.754 10.4962 226.294 10.3409 225.676 10.3409C225.036 10.3409 224.534 10.4811 224.17 10.7614C223.807 11.0417 223.551 11.3409 223.403 11.6591L222.131 11.2045C222.358 10.6742 222.661 10.2614 223.04 9.96591C223.422 9.66667 223.839 9.45833 224.29 9.34091C224.744 9.2197 225.191 9.15909 225.631 9.15909C225.911 9.15909 226.233 9.19318 226.597 9.26136C226.964 9.32576 227.318 9.46023 227.659 9.66477C228.004 9.86932 228.29 10.178 228.517 10.5909C228.744 11.0038 228.858 11.5568 228.858 12.25V18H227.517V16.8182H227.449C227.358 17.0076 227.206 17.2102 226.994 17.4261C226.782 17.642 226.5 17.8258 226.148 17.9773C225.795 18.1288 225.366 18.2045 224.858 18.2045ZM225.062 17C225.593 17 226.04 16.8958 226.403 16.6875C226.771 16.4792 227.047 16.2102 227.233 15.8807C227.422 15.5511 227.517 15.2045 227.517 14.8409V13.6136C227.46 13.6818 227.335 13.7443 227.142 13.8011C226.953 13.8542 226.733 13.9015 226.483 13.9432C226.237 13.9811 225.996 14.0152 225.761 14.0455C225.53 14.072 225.343 14.0947 225.199 14.1136C224.85 14.1591 224.525 14.233 224.222 14.3352C223.922 14.4337 223.68 14.5833 223.494 14.7841C223.313 14.9811 223.222 15.25 223.222 15.5909C223.222 16.0568 223.394 16.4091 223.739 16.6477C224.087 16.8826 224.528 17 225.062 17ZM235.101 9.27273V10.4091H230.578V9.27273H235.101ZM231.896 7.18182H233.237V15.5C233.237 15.8788 233.292 16.1629 233.402 16.3523C233.516 16.5379 233.66 16.6629 233.834 16.7273C234.012 16.7879 234.199 16.8182 234.396 16.8182C234.544 16.8182 234.665 16.8106 234.76 16.7955C234.855 16.7765 234.93 16.7614 234.987 16.75L235.26 17.9545C235.169 17.9886 235.042 18.0227 234.879 18.0568C234.716 18.0947 234.51 18.1136 234.26 18.1136C233.881 18.1136 233.51 18.0322 233.146 17.8693C232.786 17.7064 232.487 17.4583 232.249 17.125C232.014 16.7917 231.896 16.3712 231.896 15.8636V7.18182ZM242.618 14.4318V9.27273H243.959V18H242.618V16.5227H242.527C242.322 16.9659 242.004 17.3428 241.572 17.6534C241.141 17.9602 240.595 18.1136 239.936 18.1136C239.391 18.1136 238.906 17.9943 238.482 17.7557C238.057 17.5133 237.724 17.1496 237.482 16.6648C237.239 16.1761 237.118 15.5606 237.118 14.8182V9.27273H238.459V14.7273C238.459 15.3636 238.637 15.8712 238.993 16.25C239.353 16.6288 239.811 16.8182 240.368 16.8182C240.701 16.8182 241.04 16.733 241.385 16.5625C241.733 16.392 242.025 16.1307 242.26 15.7784C242.499 15.4261 242.618 14.9773 242.618 14.4318ZM246.415 18V9.27273H247.71V10.5909H247.801C247.96 10.1591 248.248 9.80871 248.665 9.53977C249.081 9.27083 249.551 9.13636 250.074 9.13636C250.172 9.13636 250.295 9.13826 250.443 9.14205C250.591 9.14583 250.703 9.15152 250.778 9.15909V10.5227C250.733 10.5114 250.629 10.4943 250.466 10.4716C250.307 10.4451 250.138 10.4318 249.96 10.4318C249.536 10.4318 249.157 10.5208 248.824 10.6989C248.494 10.8731 248.233 11.1155 248.04 11.4261C247.85 11.733 247.756 12.0833 247.756 12.4773V18H246.415ZM255.761 18.1818C254.92 18.1818 254.195 17.9962 253.585 17.625C252.979 17.25 252.511 16.7273 252.182 16.0568C251.856 15.3826 251.693 14.5985 251.693 13.7045C251.693 12.8106 251.856 12.0227 252.182 11.3409C252.511 10.6553 252.97 10.1212 253.557 9.73864C254.148 9.35227 254.837 9.15909 255.625 9.15909C256.08 9.15909 256.528 9.23485 256.972 9.38636C257.415 9.53788 257.818 9.78409 258.182 10.125C258.545 10.4621 258.835 10.9091 259.051 11.4659C259.267 12.0227 259.375 12.7083 259.375 13.5227V14.0909H252.648V12.9318H258.011C258.011 12.4394 257.913 12 257.716 11.6136C257.523 11.2273 257.246 10.9223 256.886 10.6989C256.53 10.4754 256.11 10.3636 255.625 10.3636C255.091 10.3636 254.629 10.4962 254.239 10.7614C253.852 11.0227 253.555 11.3636 253.347 11.7841C253.138 12.2045 253.034 12.6553 253.034 13.1364V13.9091C253.034 14.5682 253.148 15.1269 253.375 15.5852C253.606 16.0398 253.926 16.3864 254.335 16.625C254.744 16.8598 255.22 16.9773 255.761 16.9773C256.114 16.9773 256.432 16.928 256.716 16.8295C257.004 16.7273 257.252 16.5758 257.46 16.375C257.669 16.1705 257.83 15.9167 257.943 15.6136L259.239 15.9773C259.102 16.4167 258.873 16.803 258.551 17.1364C258.229 17.4659 257.831 17.7235 257.358 17.9091C256.884 18.0909 256.352 18.1818 255.761 18.1818Z" fill="#18191F"/>
<path d="M312.409 18V6.36364H316.341C317.254 6.36364 318 6.52841 318.58 6.85795C319.163 7.18371 319.595 7.625 319.875 8.18182C320.155 8.73864 320.295 9.35985 320.295 10.0455C320.295 10.7311 320.155 11.3542 319.875 11.9148C319.598 12.4754 319.17 12.9223 318.591 13.2557C318.011 13.5852 317.269 13.75 316.364 13.75H313.545V12.5H316.318C316.943 12.5 317.445 12.392 317.824 12.1761C318.203 11.9602 318.477 11.6686 318.648 11.3011C318.822 10.9299 318.909 10.5114 318.909 10.0455C318.909 9.57955 318.822 9.16288 318.648 8.79545C318.477 8.42803 318.201 8.14015 317.818 7.93182C317.436 7.7197 316.928 7.61364 316.295 7.61364H313.818V18H312.409ZM322.384 18V9.27273H323.679V10.5909H323.77C323.929 10.1591 324.217 9.80871 324.634 9.53977C325.05 9.27083 325.52 9.13636 326.043 9.13636C326.141 9.13636 326.264 9.13826 326.412 9.14205C326.56 9.14583 326.671 9.15152 326.747 9.15909V10.5227C326.702 10.5114 326.598 10.4943 326.435 10.4716C326.276 10.4451 326.107 10.4318 325.929 10.4318C325.505 10.4318 325.126 10.5208 324.793 10.6989C324.463 10.8731 324.202 11.1155 324.009 11.4261C323.819 11.733 323.724 12.0833 323.724 12.4773V18H322.384ZM331.616 18.1818C330.829 18.1818 330.137 17.9943 329.543 17.6193C328.952 17.2443 328.49 16.7197 328.156 16.0455C327.827 15.3712 327.662 14.5833 327.662 13.6818C327.662 12.7727 327.827 11.9792 328.156 11.3011C328.49 10.6231 328.952 10.0966 329.543 9.72159C330.137 9.34659 330.829 9.15909 331.616 9.15909C332.404 9.15909 333.094 9.34659 333.685 9.72159C334.279 10.0966 334.741 10.6231 335.071 11.3011C335.404 11.9792 335.571 12.7727 335.571 13.6818C335.571 14.5833 335.404 15.3712 335.071 16.0455C334.741 16.7197 334.279 17.2443 333.685 17.6193C333.094 17.9943 332.404 18.1818 331.616 18.1818ZM331.616 16.9773C332.215 16.9773 332.707 16.8239 333.094 16.517C333.48 16.2102 333.766 15.8068 333.952 15.3068C334.137 14.8068 334.23 14.2652 334.23 13.6818C334.23 13.0985 334.137 12.5549 333.952 12.0511C333.766 11.5473 333.48 11.1402 333.094 10.8295C332.707 10.5189 332.215 10.3636 331.616 10.3636C331.018 10.3636 330.526 10.5189 330.139 10.8295C329.753 11.1402 329.467 11.5473 329.281 12.0511C329.096 12.5549 329.003 13.0985 329.003 13.6818C329.003 14.2652 329.096 14.8068 329.281 15.3068C329.467 15.8068 329.753 16.2102 330.139 16.517C330.526 16.8239 331.018 16.9773 331.616 16.9773ZM340.913 18.1818C340.186 18.1818 339.544 17.9981 338.987 17.6307C338.43 17.2595 337.995 16.7367 337.68 16.0625C337.366 15.3845 337.209 14.5833 337.209 13.6591C337.209 12.7424 337.366 11.947 337.68 11.2727C337.995 10.5985 338.432 10.0777 338.993 9.71023C339.554 9.3428 340.201 9.15909 340.936 9.15909C341.504 9.15909 341.953 9.25379 342.283 9.44318C342.616 9.62879 342.87 9.84091 343.044 10.0795C343.222 10.3144 343.36 10.5076 343.459 10.6591H343.572V6.36364H344.913V18H343.618V16.6591H343.459C343.36 16.8182 343.22 17.0189 343.038 17.2614C342.857 17.5 342.597 17.714 342.26 17.9034C341.923 18.089 341.474 18.1818 340.913 18.1818ZM341.095 16.9773C341.633 16.9773 342.088 16.8371 342.459 16.5568C342.83 16.2727 343.112 15.8807 343.305 15.3807C343.499 14.8769 343.595 14.2955 343.595 13.6364C343.595 12.9848 343.5 12.4148 343.311 11.9261C343.122 11.4337 342.841 11.0511 342.47 10.7784C342.099 10.5019 341.641 10.3636 341.095 10.3636C340.527 10.3636 340.054 10.5095 339.675 10.8011C339.3 11.089 339.018 11.4811 338.828 11.9773C338.643 12.4697 338.55 13.0227 338.55 13.6364C338.55 14.2576 338.644 14.822 338.834 15.3295C339.027 15.8333 339.311 16.2348 339.686 16.5341C340.065 16.8295 340.535 16.9773 341.095 16.9773ZM353.055 14.4318V9.27273H354.396V18H353.055V16.5227H352.964C352.76 16.9659 352.442 17.3428 352.01 17.6534C351.578 17.9602 351.033 18.1136 350.374 18.1136C349.828 18.1136 349.343 17.9943 348.919 17.7557C348.495 17.5133 348.161 17.1496 347.919 16.6648C347.677 16.1761 347.555 15.5606 347.555 14.8182V9.27273H348.896V14.7273C348.896 15.3636 349.074 15.8712 349.43 16.25C349.79 16.6288 350.249 16.8182 350.805 16.8182C351.139 16.8182 351.478 16.733 351.822 16.5625C352.171 16.392 352.463 16.1307 352.697 15.7784C352.936 15.4261 353.055 14.9773 353.055 14.4318ZM360.398 18.1818C359.58 18.1818 358.875 17.9886 358.284 17.6023C357.693 17.2159 357.239 16.6837 356.92 16.0057C356.602 15.3277 356.443 14.553 356.443 13.6818C356.443 12.7955 356.606 12.0133 356.932 11.3352C357.261 10.6534 357.72 10.1212 358.307 9.73864C358.898 9.35227 359.587 9.15909 360.375 9.15909C360.989 9.15909 361.542 9.27273 362.034 9.5C362.527 9.72727 362.93 10.0455 363.244 10.4545C363.559 10.8636 363.754 11.3409 363.83 11.8864H362.489C362.386 11.4886 362.159 11.1364 361.807 10.8295C361.458 10.5189 360.989 10.3636 360.398 10.3636C359.875 10.3636 359.417 10.5 359.023 10.7727C358.633 11.0417 358.328 11.4223 358.108 11.9148C357.892 12.4034 357.784 12.9773 357.784 13.6364C357.784 14.3106 357.89 14.8977 358.102 15.3977C358.318 15.8977 358.621 16.286 359.011 16.5625C359.405 16.839 359.867 16.9773 360.398 16.9773C360.746 16.9773 361.062 16.9167 361.347 16.7955C361.631 16.6742 361.871 16.5 362.068 16.2727C362.265 16.0455 362.405 15.7727 362.489 15.4545H363.83C363.754 15.9697 363.566 16.4337 363.267 16.8466C362.972 17.2557 362.58 17.5814 362.091 17.8239C361.606 18.0625 361.042 18.1818 360.398 18.1818ZM369.585 9.27273V10.4091H365.062V9.27273H369.585ZM366.381 7.18182H367.722V15.5C367.722 15.8788 367.777 16.1629 367.886 16.3523C368 16.5379 368.144 16.6629 368.318 16.7273C368.496 16.7879 368.684 16.8182 368.881 16.8182C369.028 16.8182 369.15 16.8106 369.244 16.7955C369.339 16.7765 369.415 16.7614 369.472 16.75L369.744 17.9545C369.653 17.9886 369.527 18.0227 369.364 18.0568C369.201 18.0947 368.994 18.1136 368.744 18.1136C368.366 18.1136 367.994 18.0322 367.631 17.8693C367.271 17.7064 366.972 17.4583 366.733 17.125C366.498 16.7917 366.381 16.3712 366.381 15.8636V7.18182Z" fill="#18191F"/>
<path d="M421.773 7.61364V6.36364H430.5V7.61364H426.841V18H425.432V7.61364H421.773ZM434.886 18.1818C434.045 18.1818 433.32 17.9962 432.71 17.625C432.104 17.25 431.636 16.7273 431.307 16.0568C430.981 15.3826 430.818 14.5985 430.818 13.7045C430.818 12.8106 430.981 12.0227 431.307 11.3409C431.636 10.6553 432.095 10.1212 432.682 9.73864C433.273 9.35227 433.962 9.15909 434.75 9.15909C435.205 9.15909 435.653 9.23485 436.097 9.38636C436.54 9.53788 436.943 9.78409 437.307 10.125C437.67 10.4621 437.96 10.9091 438.176 11.4659C438.392 12.0227 438.5 12.7083 438.5 13.5227V14.0909H431.773V12.9318H437.136C437.136 12.4394 437.038 12 436.841 11.6136C436.648 11.2273 436.371 10.9223 436.011 10.6989C435.655 10.4754 435.235 10.3636 434.75 10.3636C434.216 10.3636 433.754 10.4962 433.364 10.7614C432.977 11.0227 432.68 11.3636 432.472 11.7841C432.263 12.2045 432.159 12.6553 432.159 13.1364V13.9091C432.159 14.5682 432.273 15.1269 432.5 15.5852C432.731 16.0398 433.051 16.3864 433.46 16.625C433.869 16.8598 434.345 16.9773 434.886 16.9773C435.239 16.9773 435.557 16.928 435.841 16.8295C436.129 16.7273 436.377 16.5758 436.585 16.375C436.794 16.1705 436.955 15.9167 437.068 15.6136L438.364 15.9773C438.227 16.4167 437.998 16.803 437.676 17.1364C437.354 17.4659 436.956 17.7235 436.483 17.9091C436.009 18.0909 435.477 18.1818 434.886 18.1818ZM446.722 11.2273L445.517 11.5682C445.441 11.3674 445.33 11.1723 445.182 10.983C445.038 10.7898 444.841 10.6307 444.591 10.5057C444.341 10.3807 444.021 10.3182 443.631 10.3182C443.097 10.3182 442.652 10.4413 442.295 10.6875C441.943 10.9299 441.767 11.2386 441.767 11.6136C441.767 11.947 441.888 12.2102 442.131 12.4034C442.373 12.5966 442.752 12.7576 443.267 12.8864L444.562 13.2045C445.343 13.3939 445.924 13.6837 446.307 14.0739C446.689 14.4602 446.881 14.9583 446.881 15.5682C446.881 16.0682 446.737 16.5152 446.449 16.9091C446.165 17.303 445.767 17.6136 445.256 17.8409C444.744 18.0682 444.15 18.1818 443.472 18.1818C442.581 18.1818 441.845 17.9886 441.261 17.6023C440.678 17.2159 440.309 16.6515 440.153 15.9091L441.426 15.5909C441.547 16.0606 441.777 16.4129 442.114 16.6477C442.455 16.8826 442.9 17 443.449 17C444.074 17 444.57 16.8674 444.938 16.6023C445.309 16.3333 445.494 16.0114 445.494 15.6364C445.494 15.3333 445.388 15.0795 445.176 14.875C444.964 14.6667 444.638 14.5114 444.199 14.4091L442.744 14.0682C441.945 13.8788 441.358 13.5852 440.983 13.1875C440.612 12.786 440.426 12.2841 440.426 11.6818C440.426 11.1894 440.564 10.7538 440.841 10.375C441.121 9.99621 441.502 9.69886 441.983 9.48295C442.468 9.26705 443.017 9.15909 443.631 9.15909C444.494 9.15909 445.172 9.34848 445.665 9.72727C446.161 10.1061 446.513 10.6061 446.722 11.2273ZM452.695 9.27273V10.4091H448.172V9.27273H452.695ZM449.49 7.18182H450.831V15.5C450.831 15.8788 450.886 16.1629 450.996 16.3523C451.109 16.5379 451.253 16.6629 451.428 16.7273C451.606 16.7879 451.793 16.8182 451.99 16.8182C452.138 16.8182 452.259 16.8106 452.354 16.7955C452.448 16.7765 452.524 16.7614 452.581 16.75L452.854 17.9545C452.763 17.9886 452.636 18.0227 452.473 18.0568C452.31 18.0947 452.104 18.1136 451.854 18.1136C451.475 18.1136 451.104 18.0322 450.74 17.8693C450.38 17.7064 450.081 17.4583 449.842 17.125C449.607 16.7917 449.49 16.3712 449.49 15.8636V7.18182ZM454.712 18V9.27273H456.053V18H454.712ZM455.393 7.81818C455.132 7.81818 454.907 7.72917 454.717 7.55114C454.532 7.37311 454.439 7.15909 454.439 6.90909C454.439 6.65909 454.532 6.44508 454.717 6.26705C454.907 6.08902 455.132 6 455.393 6C455.655 6 455.878 6.08902 456.064 6.26705C456.253 6.44508 456.348 6.65909 456.348 6.90909C456.348 7.15909 456.253 7.37311 456.064 7.55114C455.878 7.72917 455.655 7.81818 455.393 7.81818ZM458.509 18V9.27273H459.804V10.6364H459.918C460.099 10.1705 460.393 9.80871 460.798 9.55114C461.204 9.28977 461.69 9.15909 462.259 9.15909C462.834 9.15909 463.313 9.28977 463.696 9.55114C464.082 9.80871 464.384 10.1705 464.599 10.6364H464.69C464.914 10.1856 465.249 9.82765 465.696 9.5625C466.143 9.29356 466.679 9.15909 467.304 9.15909C468.084 9.15909 468.723 9.40341 469.219 9.89205C469.715 10.3769 469.963 11.1326 469.963 12.1591V18H468.622V12.1591C468.622 11.5152 468.446 11.0549 468.094 10.7784C467.741 10.5019 467.327 10.3636 466.849 10.3636C466.236 10.3636 465.76 10.5492 465.423 10.9205C465.086 11.2879 464.918 11.7538 464.918 12.3182V18H463.554V12.0227C463.554 11.5265 463.393 11.1269 463.071 10.8239C462.749 10.517 462.334 10.3636 461.827 10.3636C461.478 10.3636 461.152 10.4564 460.849 10.642C460.55 10.8277 460.308 11.0852 460.122 11.4148C459.94 11.7405 459.849 12.1174 459.849 12.5455V18H458.509ZM475.96 18.1818C475.172 18.1818 474.481 17.9943 473.886 17.6193C473.295 17.2443 472.833 16.7197 472.5 16.0455C472.17 15.3712 472.006 14.5833 472.006 13.6818C472.006 12.7727 472.17 11.9792 472.5 11.3011C472.833 10.6231 473.295 10.0966 473.886 9.72159C474.481 9.34659 475.172 9.15909 475.96 9.15909C476.748 9.15909 477.438 9.34659 478.028 9.72159C478.623 10.0966 479.085 10.6231 479.415 11.3011C479.748 11.9792 479.915 12.7727 479.915 13.6818C479.915 14.5833 479.748 15.3712 479.415 16.0455C479.085 16.7197 478.623 17.2443 478.028 17.6193C477.438 17.9943 476.748 18.1818 475.96 18.1818ZM475.96 16.9773C476.559 16.9773 477.051 16.8239 477.438 16.517C477.824 16.2102 478.11 15.8068 478.295 15.3068C478.481 14.8068 478.574 14.2652 478.574 13.6818C478.574 13.0985 478.481 12.5549 478.295 12.0511C478.11 11.5473 477.824 11.1402 477.438 10.8295C477.051 10.5189 476.559 10.3636 475.96 10.3636C475.362 10.3636 474.869 10.5189 474.483 10.8295C474.097 11.1402 473.811 11.5473 473.625 12.0511C473.439 12.5549 473.347 13.0985 473.347 13.6818C473.347 14.2652 473.439 14.8068 473.625 15.3068C473.811 15.8068 474.097 16.2102 474.483 16.517C474.869 16.8239 475.362 16.9773 475.96 16.9773ZM483.303 12.75V18H481.962V9.27273H483.257V10.6364H483.371C483.575 10.1932 483.886 9.83712 484.303 9.56818C484.719 9.29545 485.257 9.15909 485.916 9.15909C486.507 9.15909 487.024 9.2803 487.467 9.52273C487.911 9.76136 488.255 10.125 488.501 10.6136C488.748 11.0985 488.871 11.7121 488.871 12.4545V18H487.53V12.5455C487.53 11.8598 487.352 11.3258 486.996 10.9432C486.64 10.5568 486.151 10.3636 485.53 10.3636C485.102 10.3636 484.719 10.4564 484.382 10.642C484.049 10.8277 483.786 11.0985 483.592 11.4545C483.399 11.8106 483.303 12.2424 483.303 12.75ZM491.321 18V9.27273H492.662V18H491.321ZM492.003 7.81818C491.741 7.81818 491.516 7.72917 491.327 7.55114C491.141 7.37311 491.048 7.15909 491.048 6.90909C491.048 6.65909 491.141 6.44508 491.327 6.26705C491.516 6.08902 491.741 6 492.003 6C492.264 6 492.488 6.08902 492.673 6.26705C492.863 6.44508 492.957 6.65909 492.957 6.90909C492.957 7.15909 492.863 7.37311 492.673 7.55114C492.488 7.72917 492.264 7.81818 492.003 7.81818ZM497.686 18.2045C497.133 18.2045 496.631 18.1004 496.18 17.892C495.73 17.6799 495.372 17.375 495.107 16.9773C494.841 16.5758 494.709 16.0909 494.709 15.5227C494.709 15.0227 494.807 14.6174 495.004 14.3068C495.201 13.9924 495.464 13.7462 495.794 13.5682C496.124 13.3902 496.487 13.2576 496.885 13.1705C497.286 13.0795 497.69 13.0076 498.095 12.9545C498.625 12.8864 499.055 12.8352 499.385 12.8011C499.718 12.7633 499.961 12.7008 500.112 12.6136C500.268 12.5265 500.345 12.375 500.345 12.1591V12.1136C500.345 11.553 500.192 11.1174 499.885 10.8068C499.582 10.4962 499.122 10.3409 498.504 10.3409C497.864 10.3409 497.362 10.4811 496.999 10.7614C496.635 11.0417 496.379 11.3409 496.232 11.6591L494.959 11.2045C495.186 10.6742 495.489 10.2614 495.868 9.96591C496.25 9.66667 496.667 9.45833 497.118 9.34091C497.572 9.2197 498.019 9.15909 498.459 9.15909C498.739 9.15909 499.061 9.19318 499.425 9.26136C499.792 9.32576 500.146 9.46023 500.487 9.66477C500.832 9.86932 501.118 10.178 501.345 10.5909C501.572 11.0038 501.686 11.5568 501.686 12.25V18H500.345V16.8182H500.277C500.186 17.0076 500.035 17.2102 499.822 17.4261C499.61 17.642 499.328 17.8258 498.976 17.9773C498.624 18.1288 498.194 18.2045 497.686 18.2045ZM497.891 17C498.421 17 498.868 16.8958 499.232 16.6875C499.599 16.4792 499.875 16.2102 500.061 15.8807C500.25 15.5511 500.345 15.2045 500.345 14.8409V13.6136C500.288 13.6818 500.163 13.7443 499.97 13.8011C499.781 13.8542 499.561 13.9015 499.311 13.9432C499.065 13.9811 498.824 14.0152 498.589 14.0455C498.358 14.072 498.171 14.0947 498.027 14.1136C497.679 14.1591 497.353 14.233 497.05 14.3352C496.75 14.4337 496.508 14.5833 496.322 14.7841C496.141 14.9811 496.05 15.25 496.05 15.5909C496.05 16.0568 496.222 16.4091 496.567 16.6477C496.915 16.8826 497.357 17 497.891 17ZM505.474 6.36364V18H504.134V6.36364H505.474Z" fill="#18191F"/>
<path d="M558.409 18V6.36364H565.386V7.61364H559.818V11.5455H564.864V12.7955H559.818V18H558.409ZM566.824 18H565.347L569.619 6.36364H571.074L575.347 18H573.869L570.392 8.20455H570.301L566.824 18ZM567.369 13.4545H573.324V14.7045H567.369V13.4545ZM580.839 14.3636H582.385L583.68 16.0682L584.021 16.5227L585.953 19.0909H584.408L583.135 17.3864L582.817 16.9545L580.839 14.3636ZM586.43 12.1818C586.43 13.4091 586.209 14.4697 585.766 15.3636C585.322 16.2576 584.714 16.947 583.942 17.4318C583.169 17.9167 582.286 18.1591 581.294 18.1591C580.302 18.1591 579.419 17.9167 578.646 17.4318C577.874 16.947 577.266 16.2576 576.822 15.3636C576.379 14.4697 576.158 13.4091 576.158 12.1818C576.158 10.9545 576.379 9.89394 576.822 9C577.266 8.10606 577.874 7.41667 578.646 6.93182C579.419 6.44697 580.302 6.20455 581.294 6.20455C582.286 6.20455 583.169 6.44697 583.942 6.93182C584.714 7.41667 585.322 8.10606 585.766 9C586.209 9.89394 586.43 10.9545 586.43 12.1818ZM585.067 12.1818C585.067 11.1742 584.898 10.3239 584.561 9.63068C584.228 8.9375 583.775 8.41288 583.203 8.05682C582.635 7.70076 581.999 7.52273 581.294 7.52273C580.589 7.52273 579.951 7.70076 579.379 8.05682C578.811 8.41288 578.358 8.9375 578.021 9.63068C577.688 10.3239 577.521 11.1742 577.521 12.1818C577.521 13.1894 577.688 14.0398 578.021 14.733C578.358 15.4261 578.811 15.9508 579.379 16.3068C579.951 16.6629 580.589 16.8409 581.294 16.8409C581.999 16.8409 582.635 16.6629 583.203 16.3068C583.775 15.9508 584.228 15.4261 584.561 14.733C584.898 14.0398 585.067 13.1894 585.067 12.1818Z" fill="#18191F"/>
</g>
<defs>
<clipPath id="clip0_213_908">
<rect width="588" height="24" fill="white"/>
</clipPath>
</defs>
</svg>
