<svg width="182" height="40" viewBox="0 0 182 40" fill="none" xmlns="http://www.w3.org/2000/svg">
<g clip-path="url(#clip0_213_943)">
<rect width="77" height="40" rx="6" fill="#F5F7FA"/>
<path d="M21.2026 25V14.8182H22.7388V23.6776H27.3525V25H21.2026ZM32.2022 25.1541C31.4863 25.1541 30.8616 24.9901 30.3279 24.6619C29.7943 24.3338 29.38 23.8748 29.085 23.2848C28.7901 22.6948 28.6426 22.0054 28.6426 21.2166C28.6426 20.4245 28.7901 19.7318 29.085 19.1385C29.38 18.5452 29.7943 18.0845 30.3279 17.7564C30.8616 17.4283 31.4863 17.2642 32.2022 17.2642C32.9181 17.2642 33.5429 17.4283 34.0765 17.7564C34.6101 18.0845 35.0244 18.5452 35.3194 19.1385C35.6144 19.7318 35.7619 20.4245 35.7619 21.2166C35.7619 22.0054 35.6144 22.6948 35.3194 23.2848C35.0244 23.8748 34.6101 24.3338 34.0765 24.6619C33.5429 24.9901 32.9181 25.1541 32.2022 25.1541ZM32.2072 23.9062C32.6712 23.9062 33.0557 23.7836 33.3606 23.5384C33.6655 23.2931 33.8909 22.9666 34.0368 22.5589C34.1859 22.1513 34.2605 21.7022 34.2605 21.2116C34.2605 20.7244 34.1859 20.277 34.0368 19.8693C33.8909 19.4583 33.6655 19.1286 33.3606 18.88C33.0557 18.6314 32.6712 18.5071 32.2072 18.5071C31.7399 18.5071 31.3521 18.6314 31.0439 18.88C30.7389 19.1286 30.5119 19.4583 30.3627 19.8693C30.2169 20.277 30.144 20.7244 30.144 21.2116C30.144 21.7022 30.2169 22.1513 30.3627 22.5589C30.5119 22.9666 30.7389 23.2931 31.0439 23.5384C31.3521 23.7836 31.7399 23.9062 32.2072 23.9062ZM40.6229 28.0227C40.0163 28.0227 39.4943 27.9432 39.0568 27.7841C38.6226 27.625 38.268 27.4145 37.9929 27.1527C37.7178 26.8909 37.5123 26.6042 37.3764 26.2926L38.6541 25.7656C38.7436 25.9115 38.8629 26.0656 39.0121 26.228C39.1645 26.3937 39.37 26.5346 39.6286 26.6506C39.8904 26.7666 40.2268 26.8246 40.6378 26.8246C41.2012 26.8246 41.6669 26.687 42.0348 26.4119C42.4027 26.1402 42.5866 25.706 42.5866 25.1094V23.608H42.4922C42.4027 23.7704 42.2734 23.951 42.1044 24.1499C41.9387 24.3487 41.71 24.5211 41.4183 24.6669C41.1267 24.8127 40.7472 24.8857 40.2798 24.8857C39.6766 24.8857 39.133 24.7448 38.6491 24.4631C38.1686 24.178 37.7874 23.7588 37.5057 23.2053C37.2273 22.6484 37.0881 21.964 37.0881 21.152C37.0881 20.34 37.2256 19.6439 37.5007 19.0639C37.7791 18.4839 38.1603 18.0398 38.6442 17.7315C39.1281 17.42 39.6766 17.2642 40.2898 17.2642C40.7637 17.2642 41.1465 17.3438 41.4382 17.5028C41.7299 17.6586 41.9569 17.8409 42.1193 18.0497C42.285 18.2585 42.4126 18.4425 42.5021 18.6016H42.6115V17.3636H44.0682V25.169C44.0682 25.8253 43.9157 26.3639 43.6108 26.7848C43.3059 27.2057 42.8932 27.5173 42.3729 27.7195C41.8558 27.9216 41.2725 28.0227 40.6229 28.0227ZM40.608 23.6527C41.0355 23.6527 41.3968 23.5533 41.6918 23.3544C41.9901 23.1522 42.2154 22.8639 42.3679 22.4893C42.5237 22.1115 42.6016 21.6591 42.6016 21.1321C42.6016 20.6184 42.5253 20.166 42.3729 19.7749C42.2204 19.3838 41.9967 19.0788 41.7017 18.8601C41.4067 18.638 41.0421 18.527 40.608 18.527C40.1605 18.527 39.7876 18.643 39.4893 18.875C39.1911 19.1037 38.9657 19.4152 38.8132 19.8097C38.6641 20.2041 38.5895 20.6449 38.5895 21.1321C38.5895 21.6326 38.6657 22.0717 38.8182 22.4496C38.9706 22.8274 39.196 23.1224 39.4943 23.3345C39.7959 23.5466 40.1671 23.6527 40.608 23.6527ZM46.0618 25V17.3636H47.5483V25H46.0618ZM46.8125 16.1854C46.554 16.1854 46.3319 16.0992 46.1463 15.9268C45.964 15.7512 45.8729 15.5424 45.8729 15.3004C45.8729 15.0552 45.964 14.8464 46.1463 14.674C46.3319 14.4983 46.554 14.4105 46.8125 14.4105C47.071 14.4105 47.2914 14.4983 47.4737 14.674C47.6593 14.8464 47.7521 15.0552 47.7521 15.3004C47.7521 15.5424 47.6593 15.7512 47.4737 15.9268C47.2914 16.0992 47.071 16.1854 46.8125 16.1854ZM51.0346 20.4659V25H49.5481V17.3636H50.975V18.6065H51.0694C51.2451 18.2022 51.5202 17.8774 51.8947 17.6321C52.2725 17.3868 52.7482 17.2642 53.3216 17.2642C53.8419 17.2642 54.2976 17.3736 54.6887 17.5923C55.0798 17.8078 55.3831 18.1293 55.5985 18.5568C55.814 18.9844 55.9217 19.513 55.9217 20.1428V25H54.4352V20.3217C54.4352 19.7682 54.291 19.3357 54.0027 19.0241C53.7143 18.7093 53.3182 18.5518 52.8145 18.5518C52.4698 18.5518 52.1632 18.6264 51.8947 18.7756C51.6296 18.9247 51.4191 19.1435 51.2633 19.4318C51.1109 19.7169 51.0346 20.0616 51.0346 20.4659Z" fill="#4CAF4F"/>
<rect x="91" width="91" height="40" rx="6" fill="#4CAF4F"/>
<path d="M118.084 17.4929C118.031 17.0223 117.812 16.6577 117.428 16.3991C117.043 16.1373 116.559 16.0064 115.976 16.0064C115.558 16.0064 115.197 16.0727 114.892 16.2053C114.587 16.3345 114.35 16.5135 114.181 16.7422C114.016 16.9676 113.933 17.2244 113.933 17.5128C113.933 17.7547 113.989 17.9635 114.102 18.1392C114.218 18.3149 114.369 18.4624 114.554 18.5817C114.743 18.6977 114.945 18.7955 115.161 18.875C115.376 18.9512 115.583 19.0142 115.782 19.0639L116.776 19.3224C117.101 19.402 117.434 19.5097 117.776 19.6456C118.117 19.7815 118.434 19.9605 118.725 20.1825C119.017 20.4046 119.252 20.6797 119.431 21.0078C119.614 21.3359 119.705 21.7287 119.705 22.1861C119.705 22.7628 119.556 23.2749 119.257 23.7223C118.962 24.1697 118.533 24.5227 117.97 24.7812C117.41 25.0398 116.732 25.169 115.936 25.169C115.174 25.169 114.514 25.0481 113.958 24.8061C113.401 24.5642 112.965 24.2211 112.65 23.777C112.335 23.3295 112.161 22.7992 112.128 22.1861H113.669C113.699 22.554 113.818 22.8606 114.027 23.1058C114.239 23.3478 114.509 23.5284 114.838 23.6477C115.169 23.7637 115.532 23.8217 115.926 23.8217C116.36 23.8217 116.747 23.7538 117.085 23.6179C117.426 23.4787 117.695 23.2865 117.89 23.0412C118.086 22.7926 118.183 22.5026 118.183 22.1712C118.183 21.8696 118.097 21.6226 117.925 21.4304C117.756 21.2382 117.526 21.0791 117.234 20.9531C116.945 20.8272 116.619 20.7161 116.254 20.62L115.051 20.2919C114.236 20.0698 113.59 19.7434 113.112 19.3125C112.638 18.8816 112.401 18.3116 112.401 17.6023C112.401 17.0156 112.561 16.5036 112.879 16.0661C113.197 15.6286 113.628 15.2888 114.171 15.0469C114.715 14.8016 115.328 14.679 116.011 14.679C116.7 14.679 117.308 14.8 117.835 15.0419C118.366 15.2839 118.783 15.617 119.088 16.0412C119.393 16.4621 119.552 16.946 119.566 17.4929H118.084ZM121.421 25V17.3636H122.908V25H121.421ZM122.172 16.1854C121.913 16.1854 121.691 16.0992 121.506 15.9268C121.323 15.7512 121.232 15.5424 121.232 15.3004C121.232 15.0552 121.323 14.8464 121.506 14.674C121.691 14.4983 121.913 14.4105 122.172 14.4105C122.43 14.4105 122.651 14.4983 122.833 14.674C123.019 14.8464 123.112 15.0552 123.112 15.3004C123.112 15.5424 123.019 15.7512 122.833 15.9268C122.651 16.0992 122.43 16.1854 122.172 16.1854ZM128.109 28.0227C127.503 28.0227 126.981 27.9432 126.543 27.7841C126.109 27.625 125.754 27.4145 125.479 27.1527C125.204 26.8909 124.999 26.6042 124.863 26.2926L126.14 25.7656C126.23 25.9115 126.349 26.0656 126.498 26.228C126.651 26.3937 126.856 26.5346 127.115 26.6506C127.377 26.7666 127.713 26.8246 128.124 26.8246C128.688 26.8246 129.153 26.687 129.521 26.4119C129.889 26.1402 130.073 25.706 130.073 25.1094V23.608H129.979C129.889 23.7704 129.76 23.951 129.591 24.1499C129.425 24.3487 129.196 24.5211 128.905 24.6669C128.613 24.8127 128.233 24.8857 127.766 24.8857C127.163 24.8857 126.619 24.7448 126.135 24.4631C125.655 24.178 125.274 23.7588 124.992 23.2053C124.714 22.6484 124.574 21.964 124.574 21.152C124.574 20.34 124.712 19.6439 124.987 19.0639C125.265 18.4839 125.647 18.0398 126.131 17.7315C126.614 17.42 127.163 17.2642 127.776 17.2642C128.25 17.2642 128.633 17.3438 128.925 17.5028C129.216 17.6586 129.443 17.8409 129.606 18.0497C129.771 18.2585 129.899 18.4425 129.988 18.6016H130.098V17.3636H131.555V25.169C131.555 25.8253 131.402 26.3639 131.097 26.7848C130.792 27.2057 130.38 27.5173 129.859 27.7195C129.342 27.9216 128.759 28.0227 128.109 28.0227ZM128.094 23.6527C128.522 23.6527 128.883 23.5533 129.178 23.3544C129.476 23.1522 129.702 22.8639 129.854 22.4893C130.01 22.1115 130.088 21.6591 130.088 21.1321C130.088 20.6184 130.012 20.166 129.859 19.7749C129.707 19.3838 129.483 19.0788 129.188 18.8601C128.893 18.638 128.528 18.527 128.094 18.527C127.647 18.527 127.274 18.643 126.976 18.875C126.677 19.1037 126.452 19.4152 126.3 19.8097C126.15 20.2041 126.076 20.6449 126.076 21.1321C126.076 21.6326 126.152 22.0717 126.305 22.4496C126.457 22.8274 126.682 23.1224 126.981 23.3345C127.282 23.5466 127.653 23.6527 128.094 23.6527ZM135.035 20.4659V25H133.548V17.3636H134.975V18.6065H135.069C135.245 18.2022 135.52 17.8774 135.895 17.6321C136.273 17.3868 136.748 17.2642 137.322 17.2642C137.842 17.2642 138.298 17.3736 138.689 17.5923C139.08 17.8078 139.383 18.1293 139.599 18.5568C139.814 18.9844 139.922 19.513 139.922 20.1428V25H138.435V20.3217C138.435 19.7682 138.291 19.3357 138.003 19.0241C137.714 18.7093 137.318 18.5518 136.814 18.5518C136.47 18.5518 136.163 18.6264 135.895 18.7756C135.63 18.9247 135.419 19.1435 135.263 19.4318C135.111 19.7169 135.035 20.0616 135.035 20.4659ZM150.458 21.8331V17.3636H151.949V25H150.488V23.6776H150.408C150.232 24.0852 149.951 24.425 149.563 24.6967C149.178 24.9652 148.699 25.0994 148.126 25.0994C147.636 25.0994 147.201 24.9917 146.824 24.7763C146.449 24.5575 146.154 24.2344 145.939 23.8068C145.726 23.3793 145.62 22.8506 145.62 22.2209V17.3636H147.107V22.0419C147.107 22.5623 147.251 22.9766 147.539 23.2848C147.828 23.593 148.202 23.7472 148.663 23.7472C148.941 23.7472 149.218 23.6776 149.493 23.5384C149.772 23.3991 150.002 23.1887 150.184 22.907C150.37 22.6252 150.461 22.2673 150.458 21.8331ZM153.947 27.8636V17.3636H155.398V18.6016H155.523C155.609 18.4425 155.733 18.2585 155.895 18.0497C156.058 17.8409 156.283 17.6586 156.572 17.5028C156.86 17.3438 157.241 17.2642 157.715 17.2642C158.331 17.2642 158.882 17.42 159.366 17.7315C159.849 18.0431 160.229 18.4922 160.504 19.0788C160.782 19.6655 160.922 20.3714 160.922 21.1967C160.922 22.022 160.784 22.7296 160.509 23.3196C160.234 23.9062 159.856 24.3587 159.376 24.6768C158.895 24.9917 158.346 25.1491 157.73 25.1491C157.266 25.1491 156.886 25.0713 156.591 24.9155C156.3 24.7597 156.071 24.5774 155.905 24.3686C155.74 24.1598 155.612 23.9742 155.523 23.8118H155.433V27.8636H153.947ZM155.403 21.1818C155.403 21.7187 155.481 22.1894 155.637 22.5938C155.793 22.9981 156.018 23.3146 156.313 23.5433C156.608 23.7687 156.969 23.8814 157.397 23.8814C157.841 23.8814 158.212 23.7637 158.51 23.5284C158.809 23.2898 159.034 22.9666 159.187 22.5589C159.342 22.1513 159.42 21.6922 159.42 21.1818C159.42 20.678 159.344 20.2256 159.192 19.8246C159.042 19.4235 158.817 19.107 158.515 18.875C158.217 18.643 157.844 18.527 157.397 18.527C156.966 18.527 156.601 18.638 156.303 18.8601C156.008 19.0821 155.784 19.392 155.632 19.7898C155.479 20.1875 155.403 20.6515 155.403 21.1818Z" fill="white"/>
</g>
<defs>
<clipPath id="clip0_213_943">
<rect width="182" height="40" fill="white"/>
</clipPath>
</defs>
</svg>
